<?xml version="1.0" standalone="no"?><!DOCTYPE svg PUBLIC "-//W3C//DTD SVG 1.1//EN" "http://www.w3.org/Graphics/SVG/1.1/DTD/svg11.dtd"><svg t="1638516189213" class="icon" viewBox="0 0 1024 1024" version="1.1" xmlns="http://www.w3.org/2000/svg" p-id="6503" xmlns:xlink="http://www.w3.org/1999/xlink" width="200" height="200"><defs><style type="text/css"></style></defs><path d="M445.682 267.836c-8.108 23.572-12.512 48.868-12.512 75.192 0 4.68 0.14 9.34 0.42 13.972H157C132.148 357 112 336.852 112 312s20.148-45 45-45h280c2.97 0 5.874 0.288 8.682 0.836z m7.872 202.306a401.392 401.392 0 0 0-17.632 21.666 421.868 421.868 0 0 0-40.59 65.192H157C132.148 557 112 536.852 112 512s20.148-45 45-45h280c5.846 0 11.43 1.114 16.554 3.142z m-94.308 196.914c-2.136 14.026-3.246 27.872-3.246 41.36 0 16.938 1.764 33.11 5.196 48.39-1.38 0.128-2.78 0.194-4.196 0.194h-200C132.148 757 112 736.852 112 712s20.148-45 45-45h200c0.754 0 1.5 0.02 2.246 0.056z m186.37-200.782c-32.33-31.116-52.446-74.832-52.446-123.246C493.17 248.572 569.742 172 664.2 172c94.456 0 171.028 76.572 171.028 171.028 0 48.414-20.116 92.13-52.446 123.246 22.532 16.452 43.354 37.346 61.882 61.784 41.108 54.22 67.734 122.53 67.734 180.36 0 64.788-33.916 110.314-95.028 129.748-35.8 11.386-69.106 13.834-153.17 13.834-84.066 0-117.374-2.448-153.172-13.834C449.918 818.732 416 773.206 416 708.42c0-57.83 26.626-126.14 67.734-180.36 18.53-24.44 39.352-45.332 61.882-61.784z m118.584-42.216c44.75 0 81.028-36.278 81.028-81.03 0-44.75-36.278-81.028-81.028-81.028-44.752 0-81.03 36.278-81.03 81.028 0 44.752 36.28 81.03 81.03 81.03z m0 337.942c72.24 0 101.34-1.79 125.894-9.6 23.758-7.556 32.304-18.408 32.304-43.982 0-36.072-19.094-85.946-49.452-125.986-32.354-42.674-71.61-67.378-108.746-67.378-37.138 0-76.392 24.704-108.748 67.38C525.096 622.472 506 672.344 506 708.416c0 25.574 8.548 36.426 32.306 43.98C562.86 760.212 591.958 762 664.2 762z" p-id="6504"></path></svg>