<?xml version="1.0" standalone="no"?><!DOCTYPE svg PUBLIC "-//W3C//DTD SVG 1.1//EN" "http://www.w3.org/Graphics/SVG/1.1/DTD/svg11.dtd"><svg t="1637982982581" class="icon" viewBox="0 0 1024 1024" version="1.1" xmlns="http://www.w3.org/2000/svg" p-id="3936" xmlns:xlink="http://www.w3.org/1999/xlink" width="200" height="200"><defs><style type="text/css"></style></defs><path d="M252.109119 203.423227c9.477786 4.68901 20.651598 5.586906 31.326579 1.696025 108.844895-39.507405 188.258769-42.400624 229.961028-8.380359 16.760717 13.667966 23.045986 29.830086 31.925176 52.277475 7.681995 19.653936 16.461419 42.001559 33.6212 65.546376 64.249415 87.5947 193.44661 121.515199 395.173811 103.657053 22.048324-1.995323 38.31021-21.449727 36.414654-43.498051-1.995323-22.048324-21.349961-38.409977-43.498052-36.414653-168.904131 14.964926-277.848792-8.978956-323.342167-71.133282-11.074045-15.064692-17.159782-30.827747-23.744349-47.388932-10.674981-27.236165-22.746687-58.063913-55.769291-85.000779-65.546376-53.474669-169.203429-55.370226-308.077942-4.988309-20.85113 7.582229-31.625877 30.528449-24.043648 51.379579 3.691348 9.976617 11.074045 17.758379 20.053001 22.247857z" fill="#000000" p-id="3937"></path><path d="M721.010133 100.863601m-100.863601 0a100.863601 100.863601 0 1 0 201.727201 0 100.863601 100.863601 0 1 0-201.727201 0Z" fill="#000000" p-id="3938"></path><path d="M451.641465 550.010912L359.257989 440.766952c-6.285269-7.382697-6.085737-18.356976 0.399065-25.739672l195.940764-221.979735c7.582229-8.579891 20.651598-8.978956 28.632891-0.997662l118.821512 118.821512c7.681995 7.681995 7.582229 20.152767-0.099766 27.834762L489.652377 551.407638c-10.774747 10.774747-28.333593 10.076383-38.010912-1.396726zM318.952455 391.781761H56.966485c-23.844115 0-43.198753-19.354638-43.198753-43.198752s19.354638-43.198753 43.198753-43.198753h261.98597c23.844115 0 43.198753 19.354638 43.198753 43.198753s-19.354638 43.198753-43.198753 43.198752zM232.455183 493.243959H56.966485c-23.844115 0-43.198753-19.354638-43.198753-43.198752S33.022603 406.846454 56.966485 406.846454h175.488698c23.844115 0 43.198753 19.354638 43.198753 43.198753s-19.354638 43.198753-43.198753 43.198752zM318.952455 594.706157H56.966485c-23.844115 0-43.198753-19.354638-43.198753-43.198752s19.354638-43.198753 43.198753-43.198753h261.98597c23.844115 0 43.198753 19.354638 43.198753 43.198753s-19.354638 43.198753-43.198753 43.198752z" fill="#000000" p-id="3939"></path><path d="M329.427903 758.62198c-19.454404 0-37.113016-13.169135-41.901792-32.922837-5.686672-23.145752 8.380359-46.590803 31.625877-52.277475l193.446609-47.688231L369.334373 463.912705c-15.862822-17.858145-14.166797-45.194076 3.791114-61.056898 17.858145-15.862822 45.194076-14.166797 61.056898 3.791114l190.353858 215.295402c9.976617 11.373344 13.368667 27.036633 8.87919 41.502728s-16.261886 25.440374-30.927514 29.131722l-262.684334 64.848013c-3.491816 0.798129-6.983632 1.197194-10.375682 1.197194z" fill="#000000" p-id="3940"></path><path d="M455.43258 1024c-8.180826 0-16.461419-2.294622-23.844115-7.183164-19.953235-13.169135-25.340608-40.006235-12.27124-59.95947L579.840998 714.126267c13.169135-19.953235 40.006235-25.340608 59.95947-12.27124 19.953235 13.169135 25.340608 40.006235 12.271239 59.95947l-160.424006 242.731099c-8.480125 12.670304-22.247857 19.454404-36.215121 19.454404z" fill="#000000" p-id="3941"></path></svg>